<svg width="171" height="52" viewBox="0 0 171 52" fill="none" xmlns="http://www.w3.org/2000/svg">
<path d="M30.1926 4.666L28.4636 11.517L26.6956 4.666H24.9796L27.5146 14H29.1526L30.9076 7.422L32.6756 14H34.3136L36.8356 4.666H35.1716L33.4036 11.517L31.6616 4.666H30.1926ZM42.1089 10.386H43.6169L45.8919 14H47.7899L45.3849 10.256C46.7499 9.931 47.5559 8.995 47.5559 7.526C47.5559 5.641 46.2559 4.666 44.1759 4.666H40.4449V14H42.1089V10.386ZM42.1089 8.956V6.096H44.0849C45.2809 6.096 45.9179 6.603 45.9179 7.526C45.9179 8.436 45.2809 8.956 44.0849 8.956H42.1089ZM53.2021 4.666H51.5381V14H53.2021V4.666ZM64.5468 6.122V4.666H56.8768V6.122H59.8798V14H61.5438V6.122H64.5468ZM68.2274 4.666V14H74.5454V12.544H69.8654V9.918H73.8044V8.462H69.8654V6.122H74.5454V4.666H68.2274ZM84.4806 14.1708L83.6497 13.3491L86.535 10.4638H79.2871V9.26349H86.535L83.6497 6.38281L84.4806 5.55646L88.7878 9.86364L84.4806 14.1708ZM95.1874 14V10.113H99.0354V8.657H95.1874V6.122H99.7764V4.666H93.5494V14H95.1874ZM105.316 4.666H103.652V14H105.316V4.666ZM117.363 4.666H115.764V11.205L111.396 4.666H109.68V14H111.279V7.149L115.907 14H117.363V4.666ZM123.389 4.666H121.725V14H123.389V4.666ZM126.804 12.18C127.532 13.376 129.118 14.143 130.717 14.143C132.641 14.143 134.253 13.012 134.253 11.179C134.253 9.151 132.446 8.8 130.938 8.462C129.677 8.176 128.962 8.007 128.962 7.188C128.962 6.447 129.651 5.94 130.652 5.94C131.744 5.94 132.433 6.499 132.953 7.305L134.175 6.252C133.551 5.277 132.303 4.523 130.704 4.523C128.819 4.523 127.337 5.628 127.337 7.357C127.337 9.177 128.845 9.593 130.249 9.931C131.64 10.269 132.615 10.399 132.615 11.348C132.615 12.245 131.822 12.726 130.769 12.726C129.703 12.726 128.728 12.141 128.078 11.127L126.804 12.18ZM144.157 4.666V8.462H139.685V4.666H138.021V14H139.685V9.918H144.157V14H145.821V4.666H144.157Z" fill="white"/>
<path d="M40.0469 29.3064C39.2031 30.4731 38.1771 31.5147 36.9688 32.4314C37.0938 32.4939 37.1875 32.546 37.25 32.5876C38.4792 33.3897 39.0938 34.921 39.0938 37.1814C39.0938 38.1293 38.875 39.1397 38.4375 40.2126C38.0104 41.2751 37.4271 42.2491 36.6875 43.1345C35.8021 44.2074 34.7917 45.0251 33.6562 45.5876C32.5208 46.1606 31.3333 46.447 30.0938 46.447C29.3958 46.4574 28.7188 46.3272 28.0625 46.0564C27.4062 45.7856 26.8281 45.4054 26.3281 44.9158C26.2656 45.1033 26.1771 45.3585 26.0625 45.6814C25.9479 46.0147 25.875 46.2335 25.8438 46.3376V46.3533C25.8333 46.3637 25.8229 46.3793 25.8125 46.4001C25.8021 46.4314 25.7969 46.4522 25.7969 46.4626L25.7812 46.4783C25.7708 46.4887 25.7604 46.5043 25.75 46.5251C25.7396 46.546 25.7292 46.5616 25.7188 46.572C25.7083 46.5929 25.6823 46.6241 25.6406 46.6658C25.599 46.7074 25.5677 46.7335 25.5469 46.7439C25.5365 46.7543 25.5208 46.7647 25.5 46.7751C25.4792 46.796 25.4635 46.8064 25.4531 46.8064H25.4375C25.4271 46.8064 25.4062 46.8116 25.375 46.822C25.3542 46.8324 25.3385 46.8429 25.3281 46.8533H25.3125C25.2708 46.8741 25.2344 46.8845 25.2031 46.8845H25.1875C25.1771 46.8845 25.1562 46.8845 25.125 46.8845C25.1042 46.8949 25.0885 46.9001 25.0781 46.9001C25.0677 46.9001 25.0469 46.8949 25.0156 46.8845C24.9948 46.8845 24.9792 46.8845 24.9688 46.8845H24.9375H24.9219C24.901 46.8845 24.8698 46.8741 24.8281 46.8533H24.8125L24.7969 46.8376H24.7812C24.7708 46.8272 24.7604 46.822 24.75 46.822C24.7396 46.822 24.7344 46.8168 24.7344 46.8064C24.7344 46.8064 24.7292 46.8064 24.7188 46.8064C24.7083 46.8064 24.7031 46.8012 24.7031 46.7908C24.7031 46.7908 24.6979 46.7908 24.6875 46.7908C24.6771 46.7908 24.6615 46.7856 24.6406 46.7751L24.625 46.7595L24.6094 46.7439H24.5938L24.5781 46.7283L24.5469 46.697C24.5469 46.6866 24.5417 46.6814 24.5312 46.6814H24.5156V46.6658C24.5156 46.6554 24.5104 46.6501 24.5 46.6501L24.4688 46.6189L24.4531 46.6033L24.4375 46.5876C24.4271 46.5772 24.4219 46.5668 24.4219 46.5564L24.4062 46.5408L24.3906 46.5251V46.5095L24.375 46.4939L24.3594 46.4783V46.4626V46.447L24.3438 46.4314L24.3281 46.4158C24.3281 46.4054 24.3281 46.3949 24.3281 46.3845C24.3281 46.3741 24.3229 46.3689 24.3125 46.3689C24.3125 46.3689 24.3125 46.3637 24.3125 46.3533C24.3125 46.3429 24.3073 46.3376 24.2969 46.3376C24.2969 46.3376 24.2969 46.3324 24.2969 46.322V46.2751V46.2595L24.2812 46.2439V46.197C24.2812 46.1866 24.276 46.1814 24.2656 46.1814C24.2656 46.1814 24.2656 46.1762 24.2656 46.1658V46.1189V46.0876V46.0408V46.0095C24.2656 45.9991 24.2656 45.9939 24.2656 45.9939L24.2812 45.9626V45.9314C24.4271 45.2126 24.6667 44.2751 25 43.1189C24.25 41.6918 23.8177 40.1606 23.7031 38.5251C23.599 36.8585 23.9427 35.9679 24.7344 35.8533C24.9115 35.8324 25.0781 35.8689 25.2344 35.9626C25.401 36.0564 25.5208 36.1866 25.5938 36.3533C25.75 36.7074 25.6667 37.0199 25.3438 37.2908C25.2708 37.4574 25.2656 37.9001 25.3281 38.6189C25.3906 39.3376 25.5312 40.0512 25.75 40.7595C26.7604 37.7491 27.9688 34.5981 29.375 31.3064C30.7812 28.0043 31.8906 25.7335 32.7031 24.4939C32.8281 24.3064 32.9948 24.1918 33.2031 24.1501C33.4219 24.0981 33.625 24.1345 33.8125 24.2595C34 24.3845 34.1146 24.5564 34.1562 24.7751C34.2083 24.9835 34.1719 25.1814 34.0469 25.3689C33.3802 26.4106 32.5052 28.1501 31.4219 30.5876C32.1406 29.4835 32.875 28.4783 33.625 27.572C34.9792 25.9054 36.2656 24.6345 37.4844 23.7595C38.7031 22.8741 39.6615 22.4314 40.3594 22.4314C40.8177 22.4314 41.2031 22.5668 41.5156 22.8376C41.8385 23.0981 42.0365 23.4574 42.1094 23.9158C42.2344 24.6241 42.0885 25.4731 41.6719 26.4626C41.2552 27.4522 40.7135 28.4001 40.0469 29.3064ZM34.0625 32.2595C35.0417 31.8637 35.9948 31.2335 36.9219 30.3689C37.849 29.4939 38.599 28.6085 39.1719 27.7126C39.7552 26.8064 40.1562 25.9783 40.375 25.2283C40.5521 24.6033 40.5885 24.2179 40.4844 24.072C40.4531 24.0616 40.4115 24.0564 40.3594 24.0564C40.276 24.0564 40.1406 24.0929 39.9531 24.1658C39.7656 24.2387 39.5 24.3793 39.1562 24.5876C38.8125 24.796 38.4375 25.0616 38.0312 25.3845C37.6354 25.697 37.1562 26.1345 36.5938 26.697C36.0312 27.2595 35.4635 27.8949 34.8906 28.6033C31.9219 32.2387 29.2812 37.1033 26.9688 43.197C27.8021 44.2804 28.8438 44.822 30.0938 44.822C30.7188 44.822 31.3229 44.7283 31.9062 44.5408C32.5 44.3637 33.0208 44.1241 33.4688 43.822C33.9167 43.5304 34.2917 43.2491 34.5938 42.9783C34.9062 42.697 35.1875 42.4054 35.4375 42.1033C36.0521 41.3637 36.5417 40.546 36.9062 39.6501C37.2812 38.7543 37.4688 37.9314 37.4688 37.1814C37.4688 35.5043 37.099 34.4262 36.3594 33.947C35.8594 33.6241 35.2552 33.572 34.5469 33.7908C34.5156 33.8012 34.4688 33.822 34.4062 33.8533C34.3542 33.8741 34.3125 33.8897 34.2812 33.9001C34.2708 33.9001 34.2656 33.9001 34.2656 33.9001L34.2344 33.9158H34.2031L34.1875 33.9314C34.1771 33.9314 34.1667 33.9314 34.1562 33.9314H34.125C34.1146 33.9314 34.1094 33.9314 34.1094 33.9314L34.0781 33.947H34.0469H34H33.9688C33.9583 33.947 33.9427 33.9418 33.9219 33.9314H33.8906H33.8594H33.8438C33.8333 33.921 33.8229 33.9158 33.8125 33.9158C33.8021 33.9158 33.7969 33.9158 33.7969 33.9158C33.7969 33.9054 33.7917 33.9001 33.7812 33.9001C33.7708 33.9001 33.7656 33.9001 33.7656 33.9001L33.7344 33.8845L33.7188 33.8689H33.7031H33.6875L33.6719 33.8533L33.6562 33.8376C33.6458 33.8376 33.6354 33.8376 33.625 33.8376C33.6146 33.8376 33.6094 33.8376 33.6094 33.8376C33.6094 33.8272 33.6042 33.822 33.5938 33.822C33.5833 33.822 33.5781 33.822 33.5781 33.822C33.5781 33.8116 33.5729 33.8064 33.5625 33.8064L33.5312 33.7751H33.5156L33.5 33.7595L33.4688 33.7283L33.4375 33.697L33.4219 33.6814V33.6658C33.4219 33.6554 33.4167 33.6501 33.4062 33.6501H33.3906L33.375 33.6345C33.3646 33.6241 33.3594 33.6137 33.3594 33.6033C33.3594 33.5929 33.3594 33.5876 33.3594 33.5876H33.3438C33.3333 33.5876 33.3281 33.5824 33.3281 33.572C33.3281 33.5616 33.3281 33.5512 33.3281 33.5408C33.3281 33.5304 33.3229 33.5251 33.3125 33.5251C33.3125 33.5251 33.3125 33.5199 33.3125 33.5095C33.3125 33.4991 33.3073 33.4939 33.2969 33.4939L33.2812 33.4626L33.2656 33.447V33.4314V33.4158L33.25 33.4001V33.3845C33.25 33.3741 33.2448 33.3689 33.2344 33.3689C33.2344 33.3689 33.2344 33.3637 33.2344 33.3533V33.3064V33.2908L33.2188 33.2751V33.2283V33.197V33.1501V33.1189V33.072V33.0408V32.9939L33.2344 32.9783V32.9626V32.9158C33.2344 32.9054 33.2344 32.9001 33.2344 32.9001C33.2448 32.9001 33.25 32.8949 33.25 32.8845C33.25 32.8741 33.25 32.8689 33.25 32.8689C33.2604 32.8689 33.2656 32.8637 33.2656 32.8533C33.2656 32.8429 33.2656 32.8376 33.2656 32.8376L33.2812 32.8064L33.2969 32.7908V32.7751V32.7595L33.3125 32.7439L33.3281 32.7283V32.7126C33.3281 32.7022 33.3385 32.6866 33.3594 32.6658C33.3594 32.6554 33.3594 32.6501 33.3594 32.6501H33.375C33.3854 32.6501 33.3906 32.6449 33.3906 32.6345C33.3906 32.6241 33.3958 32.6137 33.4062 32.6033L33.4219 32.5876L33.4531 32.5564L33.4844 32.5251H33.5C33.5104 32.5251 33.5156 32.5199 33.5156 32.5095L33.5469 32.4783L33.5625 32.4626H33.5781L33.6094 32.4314H33.625L33.6406 32.4158L33.6562 32.4001C33.6667 32.4001 33.6771 32.4001 33.6875 32.4001L34.0625 32.2595ZM53.3438 37.4626C53.3854 37.6814 53.3385 37.8845 53.2031 38.072C53.0781 38.2491 52.9062 38.3585 52.6875 38.4001C52.2604 38.4731 51.8021 38.5095 51.3125 38.5095C50.7604 38.5095 50.2396 38.4574 49.75 38.3533C49.2708 38.2491 48.8385 38.0929 48.4531 37.8845C48.0677 37.6762 47.7656 37.5043 47.5469 37.3689C47.3385 37.2231 47.099 37.0408 46.8281 36.822C46.7344 36.7387 46.599 36.6345 46.4219 36.5095C45.849 36.8324 45.0104 37.7439 43.9062 39.2439C42.8125 40.7335 41.9219 42.4106 41.2344 44.2751V44.2908C41.2344 44.3012 41.2292 44.3168 41.2188 44.3376C41.2083 44.3689 41.1979 44.3897 41.1875 44.4001C41.1771 44.4106 41.1667 44.4262 41.1562 44.447C41.1458 44.4679 41.1354 44.4835 41.125 44.4939L41.1094 44.5095L41.0312 44.5876L41.0156 44.6033C40.9844 44.6345 40.9583 44.6554 40.9375 44.6658L40.9219 44.6814L40.8281 44.7283C40.8177 44.7387 40.8021 44.7491 40.7812 44.7595C40.75 44.7699 40.7292 44.7751 40.7188 44.7751H40.7031C40.6615 44.796 40.6302 44.8064 40.6094 44.8064H40.5938C40.5833 44.8064 40.5625 44.8064 40.5312 44.8064C40.5 44.8168 40.4792 44.822 40.4688 44.822C40.4583 44.822 40.4427 44.8168 40.4219 44.8064C40.401 44.8064 40.3802 44.8064 40.3594 44.8064H40.3438C40.3333 44.8064 40.3229 44.8012 40.3125 44.7908C40.2917 44.7908 40.276 44.7908 40.2656 44.7908C40.2448 44.7908 40.224 44.7804 40.2031 44.7595H40.1875C40.1771 44.7491 40.1667 44.7439 40.1562 44.7439C40.1458 44.7439 40.1354 44.7387 40.125 44.7283C40.125 44.7179 40.1146 44.7126 40.0938 44.7126C40.0833 44.7126 40.0729 44.7074 40.0625 44.697H40.0469C40.0469 44.6866 40.0417 44.6814 40.0312 44.6814C40.0208 44.6814 40.0104 44.6762 40 44.6658C39.9896 44.6658 39.9844 44.6606 39.9844 44.6501C39.8906 44.5772 39.8229 44.5043 39.7812 44.4314V44.4158L39.7656 44.4001C39.724 44.3272 39.6927 44.2335 39.6719 44.1189V44.0876V44.0408V44.0251V43.9626V43.947V43.8845V43.8689C39.8385 42.8272 40.3542 41.2283 41.2188 39.072C42.0729 36.9054 42.875 35.1501 43.625 33.8064C43.7396 33.6085 43.901 33.4835 44.1094 33.4314C44.3177 33.3689 44.5208 33.3897 44.7188 33.4939C44.9167 33.6085 45.0469 33.7699 45.1094 33.9783C45.1719 34.1866 45.151 34.3897 45.0469 34.5876C44.7031 35.2126 44.3906 35.822 44.1094 36.4158C45.0677 35.3741 45.8385 34.8533 46.4219 34.8533C46.7865 34.8533 47.2552 35.0824 47.8281 35.5408C48.0052 35.6762 48.1406 35.7804 48.2344 35.8533C48.3281 35.9262 48.4792 36.0304 48.6875 36.1658C48.8958 36.3012 49.0781 36.4054 49.2344 36.4783C49.3906 36.5408 49.5938 36.6137 49.8438 36.697C50.0938 36.7804 50.3385 36.8376 50.5781 36.8689C50.8281 36.8897 51.1094 36.9001 51.4219 36.9001C51.7448 36.8897 52.0781 36.8585 52.4219 36.8064C52.651 36.7751 52.8542 36.822 53.0312 36.947C53.2083 37.072 53.3125 37.2439 53.3438 37.4626ZM64.2344 36.2908C64.4635 36.2387 64.6719 36.2699 64.8594 36.3845C65.0469 36.4991 65.1667 36.6658 65.2188 36.8845C65.2604 37.0824 65.224 37.2856 65.1094 37.4939C64.7552 38.046 64.1979 38.7179 63.4375 39.5095C62.6875 40.2908 61.8906 41.0251 61.0469 41.7126C58.7344 43.5876 56.8333 44.5251 55.3438 44.5251C54.3333 44.5043 53.4792 44.1293 52.7812 43.4001C51.9896 42.5876 51.5938 41.4939 51.5938 40.1189C51.5938 39.5564 51.6667 38.9835 51.8125 38.4001C51.8229 38.3793 51.8333 38.3533 51.8438 38.322C51.8542 38.2908 51.8594 38.2647 51.8594 38.2439C52.2135 36.8793 52.8021 35.6501 53.625 34.5564C54.4583 33.4626 55.2812 32.9158 56.0938 32.9158C56.5833 32.8949 57.0156 33.072 57.3906 33.447C57.8385 33.9158 58.0573 34.5981 58.0469 35.4939C58.0365 36.3481 57.7396 37.197 57.1562 38.0408C56.5729 38.8845 55.8906 39.4626 55.1094 39.7751C54.4844 40.0356 53.8542 40.0616 53.2188 39.8533C53.2188 39.8845 53.2135 39.9314 53.2031 39.9939C53.2031 40.046 53.2031 40.0876 53.2031 40.1189C53.2031 40.796 53.3802 41.4314 53.7344 42.0251C54.099 42.6085 54.6354 42.9001 55.3438 42.9001C56.4583 42.9001 58.0156 42.0876 60.0156 40.4626C60.8385 39.796 61.5885 39.1033 62.2656 38.3845C62.9531 37.6658 63.4427 37.0824 63.7344 36.6345C63.849 36.447 64.0156 36.3324 64.2344 36.2908ZM54.4062 36.322C54.0521 36.9262 53.7656 37.5616 53.5469 38.2283C53.8594 38.4054 54.1771 38.421 54.5 38.2751C54.9792 38.0876 55.4167 37.7022 55.8125 37.1189C56.2083 36.5356 56.4115 35.9835 56.4219 35.4626C56.4323 35.0147 56.3698 34.7231 56.2344 34.5876C56.2031 34.5564 56.1562 34.5408 56.0938 34.5408C55.9583 34.5408 55.724 34.697 55.3906 35.0095C55.0677 35.322 54.7396 35.7595 54.4062 36.322ZM78.0781 36.4939C78.2656 36.5981 78.3854 36.7699 78.4375 37.0095C78.4792 37.2074 78.4427 37.4106 78.3281 37.6189C77.5052 38.9314 76.4792 40.2387 75.25 41.5408C73.5 43.4158 72.0469 44.3533 70.8906 44.3533C70.7344 44.3533 70.5729 44.3376 70.4062 44.3064C70.2396 44.2856 70.026 44.2126 69.7656 44.0876C69.5156 43.9626 69.2969 43.796 69.1094 43.5876C68.9219 43.3793 68.7552 43.0668 68.6094 42.6501C68.474 42.2335 68.4062 41.7491 68.4062 41.197C68.4062 40.9054 68.4323 40.5668 68.4844 40.1814C66.9531 42.1293 65.625 43.1033 64.5 43.1033C64.2917 43.1033 64.0938 43.072 63.9062 43.0095C63.7188 42.9366 63.526 42.8116 63.3281 42.6345C63.1198 42.4574 62.9531 42.171 62.8281 41.7751C62.7031 41.3793 62.6406 40.9001 62.6406 40.3376C62.6406 38.671 63.1771 37.2283 64.25 36.0095C64.7604 35.4366 65.3333 34.9939 65.9688 34.6814C66.6042 34.3585 67.2448 34.197 67.8906 34.197C68.6615 34.2179 69.3542 34.4679 69.9688 34.947C70.0938 34.7283 70.2188 34.4939 70.3438 34.2439C70.4479 34.046 70.6042 33.9106 70.8125 33.8376C71.0312 33.7543 71.2396 33.7595 71.4375 33.8533C71.6458 33.947 71.7917 34.0981 71.875 34.3064C71.9583 34.5147 71.9583 34.7231 71.875 34.9314C71.3646 35.921 70.9271 37.0304 70.5625 38.2595C70.2083 39.4887 70.0312 40.4679 70.0312 41.197C70.0312 41.5616 70.0625 41.8585 70.125 42.0876C70.1875 42.3168 70.2708 42.4731 70.375 42.5564C70.4896 42.6397 70.5781 42.6918 70.6406 42.7126C70.7135 42.7335 70.7969 42.7439 70.8906 42.7439C71.0156 42.7439 71.1719 42.7074 71.3594 42.6345C71.5573 42.5616 71.9062 42.3376 72.4062 41.9626C72.9062 41.5876 73.4583 41.0772 74.0625 40.4314C75.1146 39.296 76.0781 38.072 76.9531 36.7595C77.0677 36.572 77.2344 36.4522 77.4531 36.4001C77.6823 36.3481 77.8906 36.3793 78.0781 36.4939ZM67.875 38.2751C68.3542 37.6085 68.776 36.9731 69.1406 36.3689C68.776 36.0043 68.3594 35.822 67.8906 35.822C67.2344 35.822 66.6198 36.0564 66.0469 36.5251C65.4844 36.9835 65.0417 37.5616 64.7188 38.2595C64.4062 38.947 64.25 39.6397 64.25 40.3376C64.25 40.9626 64.3177 41.3429 64.4531 41.4783H64.4688H64.5C64.8021 41.4783 65.2448 41.2179 65.8281 40.697C66.4219 40.1762 67.1042 39.3689 67.875 38.2751ZM92.5312 28.0408C92.8125 28.4679 92.776 28.8897 92.4219 29.3064C92.1927 29.5668 91.9219 29.6554 91.6094 29.572C91.2969 29.4887 91.099 29.2856 91.0156 28.9626C89.7552 28.7126 87.1354 28.7387 83.1562 29.0408C82.9375 29.0512 82.6458 29.0772 82.2812 29.1189C81.8333 29.9106 81.4323 30.6449 81.0781 31.322C78.8073 35.6554 77.6719 38.9106 77.6719 41.0876C77.6719 41.4314 77.7135 41.7283 77.7969 41.9783C77.8802 42.2283 77.9688 42.4158 78.0625 42.5408C78.1667 42.6554 78.2969 42.7439 78.4531 42.8064C78.6198 42.8689 78.7448 42.9054 78.8281 42.9158C78.9219 42.9262 79.0312 42.9314 79.1562 42.9314C79.625 42.9314 80.1458 42.7856 80.7188 42.4939C81.2917 42.2022 81.8073 41.8793 82.2656 41.5251C82.724 41.1606 83.2552 40.6658 83.8594 40.0408C84.474 39.4054 84.9271 38.9158 85.2188 38.572C85.5208 38.2283 85.9219 37.7595 86.4219 37.1658L86.7031 36.822C86.9115 36.5824 87.1667 36.4887 87.4688 36.5408C87.7917 36.5929 88 36.7647 88.0938 37.0564C88.1979 37.3689 88.151 37.6397 87.9531 37.8689L87.6719 38.197C87.2656 38.6762 86.9479 39.0512 86.7188 39.322C86.5 39.5824 86.1562 39.9731 85.6875 40.4939C85.2188 41.0043 84.8177 41.4158 84.4844 41.7283C84.151 42.0304 83.7344 42.3845 83.2344 42.7908C82.7448 43.1866 82.2969 43.4991 81.8906 43.7283C81.4844 43.9574 81.0365 44.1501 80.5469 44.3064C80.0677 44.4731 79.6042 44.5564 79.1562 44.5564C78.1979 44.5564 77.4427 44.2491 76.8906 43.6345C76.3385 43.0095 76.0625 42.1606 76.0625 41.0876C76.0625 38.5981 77.2552 35.0929 79.6406 30.572C79.7865 30.2908 80.0156 29.8689 80.3281 29.3064C77.0573 29.6397 74.9167 29.9679 73.9062 30.2908C73.625 30.3845 73.3646 30.322 73.125 30.1033C72.8958 29.8845 72.8125 29.6293 72.875 29.3376C72.9479 29.0251 73.1354 28.8272 73.4375 28.7439C74.8229 28.3272 77.4479 27.9366 81.3125 27.572C82.6458 25.322 83.6354 23.8741 84.2812 23.2283C84.5 23.0095 84.7604 22.9418 85.0625 23.0251C85.3646 23.1085 85.5573 23.3012 85.6406 23.6033C85.724 23.8949 85.651 24.1554 85.4219 24.3845C85.026 24.7804 84.3229 25.7908 83.3125 27.4158L83.5312 27.4001C85.0833 27.2856 86.4323 27.2231 87.5781 27.2126C88.724 27.1918 89.5833 27.2022 90.1562 27.2439C90.7396 27.2856 91.2188 27.3637 91.5938 27.4783C91.9688 27.5824 92.1979 27.671 92.2812 27.7439C92.3646 27.8168 92.4479 27.9158 92.5312 28.0408ZM101.859 36.5408C102.089 36.572 102.271 36.6762 102.406 36.8533C102.542 37.0304 102.594 37.2283 102.562 37.447C102.531 37.6554 102.432 37.8324 102.266 37.9783C102.141 38.1033 101.922 38.3585 101.609 38.7439C100.901 39.5981 100.266 40.3272 99.7031 40.9314C99.151 41.5356 98.5469 42.1345 97.8906 42.7283C97.2448 43.3116 96.625 43.7543 96.0312 44.0564C95.4375 44.3585 94.8802 44.5095 94.3594 44.5095C93.6927 44.5095 93.1458 44.2856 92.7188 43.8376C92.4271 43.5251 92.224 43.0981 92.1094 42.5564C91.9948 42.0043 91.9427 41.5199 91.9531 41.1033C91.9635 40.6866 92 40.0929 92.0625 39.322C92.1667 38.0929 92.1719 37.3429 92.0781 37.072C91.2865 37.1762 90.2083 38.1762 88.8438 40.072C88.3021 40.822 87.8021 41.5981 87.3438 42.4001C86.8854 43.1918 86.5729 43.7804 86.4062 44.1658V44.1814L86.3594 44.2751L86.3438 44.2908C86.3333 44.3012 86.3229 44.3116 86.3125 44.322C86.3021 44.3429 86.2917 44.3585 86.2812 44.3689L86.2656 44.3845L86.2031 44.447L86.1875 44.4626C86.1771 44.4626 86.1667 44.4731 86.1562 44.4939C86.1354 44.5147 86.1198 44.5251 86.1094 44.5251L86.0938 44.5408C86.0833 44.5512 86.0729 44.5616 86.0625 44.572C86.0417 44.5824 86.026 44.5876 86.0156 44.5876H86C85.9896 44.5876 85.974 44.5929 85.9531 44.6033C85.9219 44.6137 85.901 44.6241 85.8906 44.6345C85.8698 44.6449 85.8385 44.6501 85.7969 44.6501H85.7656C85.7552 44.6501 85.7396 44.6501 85.7188 44.6501C85.6979 44.6606 85.6823 44.6658 85.6719 44.6658H85.6562C85.5312 44.6658 85.4271 44.6449 85.3438 44.6033V44.5876C85.3333 44.5876 85.3177 44.5824 85.2969 44.572L85.2656 44.5564C85.2656 44.546 85.2604 44.5408 85.25 44.5408C85.2396 44.5304 85.2344 44.5251 85.2344 44.5251H85.2031L85.1719 44.4939H85.1562L85.1406 44.4783L85.1094 44.447L85.0938 44.4158C85.0833 44.4054 85.0781 44.4001 85.0781 44.4001C85.0573 44.4001 85.0469 44.3949 85.0469 44.3845C85.0365 44.3845 85.0312 44.3793 85.0312 44.3689C85.0208 44.3689 85.0156 44.3637 85.0156 44.3533C85.0156 44.3429 85.0104 44.3324 85 44.322C85 44.3116 85 44.3064 85 44.3064C84.9896 44.3064 84.9844 44.3012 84.9844 44.2908C84.9844 44.2804 84.9844 44.2751 84.9844 44.2751C84.974 44.2751 84.9688 44.2699 84.9688 44.2595C84.9688 44.2491 84.9688 44.2439 84.9688 44.2439C84.9583 44.2439 84.9531 44.2387 84.9531 44.2283C84.9531 44.2179 84.9531 44.2126 84.9531 44.2126C84.9427 44.2126 84.9375 44.2074 84.9375 44.197C84.9375 44.1866 84.9323 44.1814 84.9219 44.1814L84.9062 44.1501V44.1345C84.9062 44.1241 84.901 44.1085 84.8906 44.0876V44.072L84.875 44.0564V44.0095C84.875 43.9991 84.8698 43.9835 84.8594 43.9626V43.9314V43.8533V43.8376C84.8594 41.8376 85.8021 38.796 87.6875 34.7126L87.75 34.5876C88.1875 33.6501 88.7344 32.5668 89.3906 31.3376C90.7344 28.8897 91.9844 26.9314 93.1406 25.4626C94.599 23.6189 95.8177 22.697 96.7969 22.697C97.349 22.697 97.8177 22.921 98.2031 23.3689C98.599 23.8168 98.7969 24.5095 98.7969 25.447C98.7969 26.3324 98.5208 27.3637 97.9688 28.5408C97.4271 29.7179 96.7135 30.8272 95.8281 31.8689C94.8177 33.046 93.724 33.9731 92.5469 34.6501C91.3698 35.3168 90.1771 35.6918 88.9688 35.7751C88.4896 36.8272 88.0573 37.8793 87.6719 38.9314C89.3802 36.6085 90.875 35.447 92.1562 35.447C92.5729 35.4262 92.9323 35.5772 93.2344 35.9001C93.526 36.2231 93.6927 36.7179 93.7344 37.3845C93.7865 38.0408 93.7656 38.7283 93.6719 39.447C93.526 41.322 93.6042 42.421 93.9062 42.7439C94 42.8376 94.151 42.8845 94.3594 42.8845C95.5156 42.8845 97.5156 41.1606 100.359 37.7126C100.859 37.1085 101.161 36.7699 101.266 36.697C101.443 36.5616 101.641 36.5095 101.859 36.5408ZM90.8125 32.1189C90.2812 33.1189 89.9479 33.7491 89.8125 34.0095C91.5312 33.5929 93.125 32.5251 94.5938 30.8064C95.2812 29.9939 95.8802 29.0824 96.3906 28.072C96.9115 27.0512 97.1719 26.1762 97.1719 25.447C97.1719 24.697 97.0469 24.322 96.7969 24.322C96.776 24.322 96.7448 24.3272 96.7031 24.3376C96.6615 24.3481 96.5677 24.3949 96.4219 24.4783C96.2865 24.5512 96.1354 24.6554 95.9688 24.7908C95.8021 24.9262 95.5781 25.1397 95.2969 25.4314C95.026 25.7231 94.7344 26.0668 94.4219 26.4626C93.2865 27.9001 92.0833 29.7856 90.8125 32.1189ZM116.781 28.0408C117.062 28.4679 117.026 28.8897 116.672 29.3064C116.443 29.5668 116.172 29.6554 115.859 29.572C115.547 29.4887 115.349 29.2856 115.266 28.9626C114.005 28.7126 111.385 28.7387 107.406 29.0408C107.188 29.0512 106.896 29.0772 106.531 29.1189C106.083 29.9106 105.682 30.6449 105.328 31.322C103.057 35.6554 101.922 38.9106 101.922 41.0876C101.922 41.4314 101.964 41.7283 102.047 41.9783C102.13 42.2283 102.219 42.4158 102.312 42.5408C102.417 42.6554 102.547 42.7439 102.703 42.8064C102.87 42.8689 102.995 42.9054 103.078 42.9158C103.172 42.9262 103.281 42.9314 103.406 42.9314C103.875 42.9314 104.396 42.7856 104.969 42.4939C105.542 42.2022 106.057 41.8793 106.516 41.5251C106.974 41.1606 107.505 40.6658 108.109 40.0408C108.724 39.4054 109.177 38.9158 109.469 38.572C109.771 38.2283 110.172 37.7595 110.672 37.1658L110.953 36.822C111.161 36.5824 111.417 36.4887 111.719 36.5408C112.042 36.5929 112.25 36.7647 112.344 37.0564C112.448 37.3689 112.401 37.6397 112.203 37.8689L111.922 38.197C111.516 38.6762 111.198 39.0512 110.969 39.322C110.75 39.5824 110.406 39.9731 109.938 40.4939C109.469 41.0043 109.068 41.4158 108.734 41.7283C108.401 42.0304 107.984 42.3845 107.484 42.7908C106.995 43.1866 106.547 43.4991 106.141 43.7283C105.734 43.9574 105.286 44.1501 104.797 44.3064C104.318 44.4731 103.854 44.5564 103.406 44.5564C102.448 44.5564 101.693 44.2491 101.141 43.6345C100.589 43.0095 100.312 42.1606 100.312 41.0876C100.312 38.5981 101.505 35.0929 103.891 30.572C104.036 30.2908 104.266 29.8689 104.578 29.3064C101.307 29.6397 99.1667 29.9679 98.1562 30.2908C97.875 30.3845 97.6146 30.322 97.375 30.1033C97.1458 29.8845 97.0625 29.6293 97.125 29.3376C97.1979 29.0251 97.3854 28.8272 97.6875 28.7439C99.0729 28.3272 101.698 27.9366 105.562 27.572C106.896 25.322 107.885 23.8741 108.531 23.2283C108.75 23.0095 109.01 22.9418 109.312 23.0251C109.615 23.1085 109.807 23.3012 109.891 23.6033C109.974 23.8949 109.901 24.1554 109.672 24.3845C109.276 24.7804 108.573 25.7908 107.562 27.4158L107.781 27.4001C109.333 27.2856 110.682 27.2231 111.828 27.2126C112.974 27.1918 113.833 27.2022 114.406 27.2439C114.99 27.2856 115.469 27.3637 115.844 27.4783C116.219 27.5824 116.448 27.671 116.531 27.7439C116.615 27.8168 116.698 27.9158 116.781 28.0408ZM125.297 36.4939C125.484 36.5981 125.604 36.7699 125.656 37.0095C125.698 37.2074 125.661 37.4106 125.547 37.6189C124.724 38.9314 123.698 40.2387 122.469 41.5408C120.719 43.4158 119.266 44.3533 118.109 44.3533C117.953 44.3533 117.792 44.3376 117.625 44.3064C117.458 44.2856 117.245 44.2126 116.984 44.0876C116.734 43.9626 116.516 43.796 116.328 43.5876C116.141 43.3793 115.974 43.0668 115.828 42.6501C115.693 42.2335 115.625 41.7491 115.625 41.197C115.625 40.9054 115.651 40.5668 115.703 40.1814C114.172 42.1293 112.844 43.1033 111.719 43.1033C111.51 43.1033 111.312 43.072 111.125 43.0095C110.938 42.9366 110.745 42.8116 110.547 42.6345C110.339 42.4574 110.172 42.171 110.047 41.7751C109.922 41.3793 109.859 40.9001 109.859 40.3376C109.859 38.671 110.396 37.2283 111.469 36.0095C111.979 35.4366 112.552 34.9939 113.188 34.6814C113.823 34.3585 114.464 34.197 115.109 34.197C115.88 34.2179 116.573 34.4679 117.188 34.947C117.312 34.7283 117.438 34.4939 117.562 34.2439C117.667 34.046 117.823 33.9106 118.031 33.8376C118.25 33.7543 118.458 33.7595 118.656 33.8533C118.865 33.947 119.01 34.0981 119.094 34.3064C119.177 34.5147 119.177 34.7231 119.094 34.9314C118.583 35.921 118.146 37.0304 117.781 38.2595C117.427 39.4887 117.25 40.4679 117.25 41.197C117.25 41.5616 117.281 41.8585 117.344 42.0876C117.406 42.3168 117.49 42.4731 117.594 42.5564C117.708 42.6397 117.797 42.6918 117.859 42.7126C117.932 42.7335 118.016 42.7439 118.109 42.7439C118.234 42.7439 118.391 42.7074 118.578 42.6345C118.776 42.5616 119.125 42.3376 119.625 41.9626C120.125 41.5876 120.677 41.0772 121.281 40.4314C122.333 39.296 123.297 38.072 124.172 36.7595C124.286 36.572 124.453 36.4522 124.672 36.4001C124.901 36.3481 125.109 36.3793 125.297 36.4939ZM115.094 38.2751C115.573 37.6085 115.995 36.9731 116.359 36.3689C115.995 36.0043 115.578 35.822 115.109 35.822C114.453 35.822 113.839 36.0564 113.266 36.5251C112.703 36.9835 112.26 37.5616 111.938 38.2595C111.625 38.947 111.469 39.6397 111.469 40.3376C111.469 40.9626 111.536 41.3429 111.672 41.4783H111.688H111.719C112.021 41.4783 112.464 41.2179 113.047 40.697C113.641 40.1762 114.323 39.3689 115.094 38.2751ZM138.594 36.6658C138.771 36.8012 138.885 36.9731 138.938 37.1814C138.99 37.4106 138.953 37.6137 138.828 37.7908C137.703 39.4679 136.385 40.9522 134.875 42.2439C133.062 43.7856 131.448 44.5564 130.031 44.5564C129.125 44.5564 128.281 44.2491 127.5 43.6345C126.719 43.0199 126.078 42.296 125.578 41.4626C124.589 42.7543 124.016 43.6085 123.859 44.0251L123.812 44.1189L123.797 44.1345V44.1501C123.776 44.1918 123.76 44.2179 123.75 44.2283C123.74 44.2387 123.734 44.2439 123.734 44.2439C123.734 44.2647 123.729 44.2751 123.719 44.2751L123.688 44.3064L123.609 44.3845L123.594 44.4001L123.562 44.4158C123.552 44.4262 123.542 44.4314 123.531 44.4314L123.516 44.447C123.505 44.4574 123.49 44.4679 123.469 44.4783C123.438 44.4887 123.417 44.4939 123.406 44.4939L123.391 44.5095C123.328 44.5408 123.26 44.5564 123.188 44.5564H123.172H123.094C122.781 44.5564 122.547 44.421 122.391 44.1501C122.391 44.1397 122.385 44.1293 122.375 44.1189L122.359 44.0876V44.072C122.359 44.0616 122.354 44.0564 122.344 44.0564L122.328 44.0251V43.9939V43.9783C122.318 43.9679 122.312 43.9574 122.312 43.947V43.9158C122.312 43.9054 122.307 43.8897 122.297 43.8689V43.8376V43.7908V43.7595V43.697C122.432 41.9262 122.958 39.8533 123.875 37.4783C124.781 35.0929 125.828 32.822 127.016 30.6658C128.234 28.4574 129.453 26.6085 130.672 25.1189C132.057 23.4418 133.245 22.6033 134.234 22.6033C134.786 22.6033 135.255 22.8272 135.641 23.2751C136.036 23.7231 136.234 24.4106 136.234 25.3376C136.234 26.2231 135.958 27.2543 135.406 28.4314C134.865 29.6085 134.151 30.7179 133.266 31.7595C132.245 32.9574 131.141 33.8897 129.953 34.5564C128.766 35.2231 127.562 35.5981 126.344 35.6814C125.75 37.0356 125.219 38.447 124.75 39.9158C124.771 39.8845 124.807 39.8324 124.859 39.7595C124.911 39.6866 124.953 39.6345 124.984 39.6033L125.031 39.5564C125.302 39.2231 125.51 38.9731 125.656 38.8064C127.969 36.1501 129.859 34.822 131.328 34.822C131.63 34.8012 131.896 34.9001 132.125 35.1189C132.354 35.3272 132.469 35.5929 132.469 35.9158C132.49 36.2699 132.344 36.7126 132.031 37.2439C131.719 37.7751 131.234 38.3168 130.578 38.8689C129.505 39.7439 128.312 40.3481 127 40.6814C127.365 41.2856 127.818 41.8168 128.359 42.2751C128.911 42.7231 129.469 42.947 130.031 42.947C131.031 42.947 132.297 42.296 133.828 40.9939C135.245 39.7751 136.458 38.4106 137.469 36.9001C137.604 36.7231 137.776 36.6085 137.984 36.5564C138.214 36.5043 138.417 36.5408 138.594 36.6658ZM130.438 36.7126C129.792 37.0356 129.005 37.6606 128.078 38.5876C128.995 38.1501 129.781 37.5251 130.438 36.7126ZM128.438 31.447C127.938 32.3637 127.505 33.1918 127.141 33.9314C128.891 33.546 130.521 32.4731 132.031 30.7126C132.719 29.9106 133.318 28.9991 133.828 27.9783C134.349 26.947 134.609 26.0668 134.609 25.3376C134.609 24.5876 134.484 24.2126 134.234 24.2126C133.797 24.2126 133.036 24.8481 131.953 26.1189C130.87 27.3897 129.698 29.1658 128.438 31.447ZM149.484 36.2908C149.714 36.2387 149.922 36.2699 150.109 36.3845C150.297 36.4991 150.417 36.6658 150.469 36.8845C150.51 37.0824 150.474 37.2856 150.359 37.4939C150.005 38.046 149.448 38.7179 148.688 39.5095C147.938 40.2908 147.141 41.0251 146.297 41.7126C143.984 43.5876 142.083 44.5251 140.594 44.5251C139.583 44.5043 138.729 44.1293 138.031 43.4001C137.24 42.5876 136.844 41.4939 136.844 40.1189C136.844 39.5564 136.917 38.9835 137.062 38.4001C137.073 38.3793 137.083 38.3533 137.094 38.322C137.104 38.2908 137.109 38.2647 137.109 38.2439C137.464 36.8793 138.052 35.6501 138.875 34.5564C139.708 33.4626 140.531 32.9158 141.344 32.9158C141.833 32.8949 142.266 33.072 142.641 33.447C143.089 33.9158 143.307 34.5981 143.297 35.4939C143.286 36.3481 142.99 37.197 142.406 38.0408C141.823 38.8845 141.141 39.4626 140.359 39.7751C139.734 40.0356 139.104 40.0616 138.469 39.8533C138.469 39.8845 138.464 39.9314 138.453 39.9939C138.453 40.046 138.453 40.0876 138.453 40.1189C138.453 40.796 138.63 41.4314 138.984 42.0251C139.349 42.6085 139.885 42.9001 140.594 42.9001C141.708 42.9001 143.266 42.0876 145.266 40.4626C146.089 39.796 146.839 39.1033 147.516 38.3845C148.203 37.6658 148.693 37.0824 148.984 36.6345C149.099 36.447 149.266 36.3324 149.484 36.2908ZM139.656 36.322C139.302 36.9262 139.016 37.5616 138.797 38.2283C139.109 38.4054 139.427 38.421 139.75 38.2751C140.229 38.0876 140.667 37.7022 141.062 37.1189C141.458 36.5356 141.661 35.9835 141.672 35.4626C141.682 35.0147 141.62 34.7231 141.484 34.5876C141.453 34.5564 141.406 34.5408 141.344 34.5408C141.208 34.5408 140.974 34.697 140.641 35.0095C140.318 35.322 139.99 35.7595 139.656 36.322Z" fill="white"/>
</svg>
