<svg width="131" height="22" viewBox="0 0 131 22" fill="none" xmlns="http://www.w3.org/2000/svg">
<path d="M4.945 16H9.655C11.935 16 13.3 14.875 13.3 12.985C13.3 11.68 12.55 10.765 11.47 10.405C12.205 10.09 12.97 9.385 12.97 8.095C12.97 6.25 11.725 5.23 9.385 5.23H4.945V16ZM7.06 9.61V7.06H9.175C10.27 7.06 10.885 7.495 10.885 8.335C10.885 9.19 10.27 9.61 9.175 9.61H7.06ZM7.06 11.395H9.505C10.585 11.395 11.17 11.965 11.17 12.775C11.17 13.6 10.585 14.155 9.505 14.155H7.06V11.395ZM19.8033 11.995H21.3033L23.7933 16H26.3133L23.6283 11.785C25.1433 11.35 26.0283 10.255 26.0283 8.62C26.0283 6.4 24.4833 5.23 22.0083 5.23H17.5983V16H19.8033V11.995ZM19.8033 10.15V7.105H21.8883C23.1783 7.105 23.8383 7.66 23.8383 8.635C23.8383 9.595 23.1783 10.15 21.8883 10.15H19.8033ZM30.5007 5.23V16H37.9407V14.095H32.6757V11.425H37.0857V9.535H32.6757V7.135H37.9407V5.23H30.5007ZM45.6459 5.23L41.6259 16H43.8159L44.6709 13.69H49.1109L49.9659 16H52.2009L48.1659 5.23H45.6459ZM46.8759 7.675L48.4059 11.815H45.3609L46.8759 7.675ZM63.1638 7.135V5.23H54.1938V7.135H57.5838V16H59.7888V7.135H63.1638ZM74.3077 5.23V9.52H69.5377V5.23H67.3327V16H69.5377V11.425H74.3077V16H76.5127V5.23H74.3077ZM89.6569 7.135V5.23H80.6869V7.135H84.0769V16H86.2819V7.135H89.6569ZM95.6879 5.23L91.6679 16H93.8579L94.7129 13.69H99.1529L100.008 16H102.243L98.2079 5.23H95.6879ZM96.9179 7.675L98.4479 11.815H95.4029L96.9179 7.675ZM108.508 5.23H106.303V16H108.508V12.91L109.753 11.5L112.918 16H115.498L111.208 9.835L115.243 5.23H112.663L108.508 10.12V5.23ZM119.367 5.23V16H126.807V14.095H121.542V11.425H125.952V9.535H121.542V7.135H126.807V5.23H119.367Z" fill="black"/>
</svg>
