<svg width="17" height="17" viewBox="0 0 17 17" fill="none" xmlns="http://www.w3.org/2000/svg">
<g opacity="0.3">
<path d="M4.42182 3.5738C4.71471 3.2809 5.18959 3.2809 5.48248 3.5738L8.95215 7.04347L12.4218 3.5738C12.7147 3.2809 13.1896 3.2809 13.4825 3.5738C13.7754 3.86669 13.7754 4.34156 13.4825 4.63446L10.0128 8.10413L13.4825 11.5738C13.7754 11.8667 13.7754 12.3416 13.4825 12.6345C13.1896 12.9273 12.7147 12.9273 12.4218 12.6345L8.95215 9.16479L5.48248 12.6345C5.18959 12.9273 4.71471 12.9273 4.42182 12.6345C4.12893 12.3416 4.12893 11.8667 4.42182 11.5738L7.89149 8.10413L4.42182 4.63446C4.12893 4.34156 4.12893 3.86669 4.42182 3.5738Z" fill="black"/>
</g>
</svg>
