<svg width="260" height="260" viewBox="0 0 260 260" fill="none" xmlns="http://www.w3.org/2000/svg">
<rect width="260" height="260" rx="40" fill="white"/>
<path d="M159.687 46.2368H131.23V129.875V213.514H173.115C196.247 213.514 215 194.762 215 171.629C215 148.497 196.247 129.745 173.115 129.745H164.257C184.558 127.405 200.34 109.662 200.34 88.1215C200.34 64.9892 182.139 46.2368 159.687 46.2368Z" fill="#191B1F"/>
<path fill-rule="evenodd" clip-rule="evenodd" d="M76.6703 87.8592C76.6703 105.556 67.3296 121.071 53.3094 129.744C67.3296 138.416 76.6703 153.932 76.6703 171.629C76.6703 189.326 67.3295 204.841 53.3093 213.513H121.959V46.2364H53.7281C67.5152 54.9571 76.6703 70.339 76.6703 87.8592Z" fill="#191B1F"/>
</svg>
