<svg width="38" height="38" viewBox="0 0 38 38" fill="none" xmlns="http://www.w3.org/2000/svg">
<path d="M24.8004 0.000244141H18.3359V19.0002V38.0001H27.8508C33.1057 38.0001 37.3656 33.7402 37.3656 28.4853C37.3656 23.2304 33.1057 18.9705 27.8508 18.9705H25.8385C30.4502 18.439 34.0354 14.4084 34.0354 9.51508C34.0354 4.26018 29.9008 0.000244141 24.8004 0.000244141Z" fill="white"/>
<path fill-rule="evenodd" clip-rule="evenodd" d="M5.94166 9.45557C5.94166 13.4757 3.81976 17.0003 0.634834 18.9704C3.81976 20.9405 5.94166 24.4651 5.94166 28.4852C5.94166 32.5054 3.81973 36.03 0.634766 38.0001H16.2295V0.000244141H0.729974C3.86195 1.98131 5.94166 5.47557 5.94166 9.45557Z" fill="white"/>
</svg>
