<svg width="48" height="48" viewBox="0 0 48 48" fill="none" xmlns="http://www.w3.org/2000/svg">
<path d="M31.3268 0.000244141H23.1611V24.0002V48.0001H35.1799C41.8177 48.0001 47.1986 42.6191 47.1986 35.9814C47.1986 29.3436 41.8177 23.9626 35.1799 23.9626H32.6381C38.4634 23.2913 42.9921 18.2 42.9921 12.019C42.9921 5.38122 37.7694 0.000244141 31.3268 0.000244141Z" fill="white"/>
<path fill-rule="evenodd" clip-rule="evenodd" d="M7.50524 11.9436C7.50524 17.0217 4.82494 21.4737 0.801875 23.9623C4.82494 26.4509 7.50524 30.9029 7.50524 35.981C7.50524 41.0592 4.82489 45.5113 0.801758 47.9999H20.5013V0H0.922072C4.87824 2.5024 7.50524 6.9162 7.50524 11.9436Z" fill="white"/>
</svg>
