<svg width="145" height="36" viewBox="0 0 145 36" fill="none" xmlns="http://www.w3.org/2000/svg">
<g clip-path="url(#clip0_2099_85405)">
<rect width="36" height="36" fill="white"/>
<path d="M24.4853 0.5H18.543V17.9653V35.4306H27.2893C32.1197 35.4306 36.0356 31.5147 36.0356 26.6843C36.0356 21.8538 32.1197 17.938 27.2893 17.938H25.4395C29.6787 17.4494 32.9744 13.7444 32.9744 9.2463C32.9744 4.41585 29.1737 0.5 24.4853 0.5Z" fill="#191B1F"/>
<path fill-rule="evenodd" clip-rule="evenodd" d="M7.14969 9.19162C7.14969 12.8871 5.19918 16.1269 2.27151 17.9379C5.19918 19.7489 7.14969 22.9888 7.14969 26.6842C7.14969 30.3797 5.19917 33.6196 2.27148 35.4305H16.6067V0.5H2.35893C5.23795 2.32105 7.14969 5.53308 7.14969 9.19162Z" fill="#191B1F"/>
<path d="M47.36 25H53.42C56.38 25 58.24 23.52 58.24 21C58.24 19.24 57.24 18 55.74 17.52C56.74 17.12 57.78 16.2 57.78 14.42C57.78 11.98 56.14 10.64 53.06 10.64H47.36V25ZM49.82 16.58V12.8H52.82C54.46 12.8 55.36 13.42 55.36 14.68C55.36 15.94 54.46 16.58 52.82 16.58H49.82ZM49.82 18.74H53.28C54.9 18.74 55.78 19.58 55.78 20.78C55.78 22 54.9 22.84 53.28 22.84H49.82V18.74ZM65.9934 14.48C65.8134 14.46 65.5934 14.44 65.3134 14.44C63.9734 14.44 62.8934 15.08 62.4334 16.06V14.5H60.0334V25H62.4334V19.48C62.4334 17.8 63.5934 16.82 65.1134 16.82C65.4534 16.82 65.6934 16.84 65.9934 16.88V14.48ZM71.5828 25.22C73.6828 25.22 75.3428 24.12 76.0828 22.28L74.0228 21.5C73.7028 22.58 72.7628 23.18 71.5828 23.18C70.0428 23.18 68.9628 22.08 68.7828 20.28H76.1428V19.48C76.1428 16.6 74.5228 14.3 71.4828 14.3C68.5628 14.3 66.4828 16.68 66.4828 19.76C66.4828 23 68.5828 25.22 71.5828 25.22ZM71.4628 16.32C72.9828 16.32 73.7028 17.32 73.7228 18.48H68.9028C69.2628 17.06 70.2228 16.32 71.4628 16.32ZM80.9189 25.18C82.2789 25.18 83.3789 24.74 84.0389 24C84.3989 24.86 85.3189 25.2 87.0589 25V23.14C86.3989 23.22 86.1389 23.04 86.1389 22.44V17.92C86.1389 15.5 84.6189 14.3 82.0989 14.3C79.7789 14.3 78.2389 15.66 77.7189 17.4L79.9789 17.92C80.2589 16.9 80.8589 16.38 81.9989 16.38C83.2789 16.38 83.7989 17 83.7989 18V18.18L80.8989 18.78C78.8789 19.2 77.3789 20.08 77.3789 22.08C77.3789 23.96 78.9189 25.18 80.9189 25.18ZM83.7989 21.3C83.7989 22.58 82.5589 23.26 81.2789 23.26C80.3589 23.26 79.7589 22.8 79.7589 21.98C79.7589 21.04 80.5189 20.72 81.5389 20.5L83.7989 20.02V21.3ZM88.9839 22.36C88.9839 24.5 90.0639 25.12 92.0639 25.12C92.6839 25.12 93.2839 25.06 93.7239 24.98V22.96C93.3639 23 93.1439 23.02 92.7439 23.02C91.8839 23.02 91.3439 22.92 91.3439 21.98V16.54H93.5439V14.5H91.3439V11.42H88.9839V14.5H87.5239V16.54H88.9839V22.36ZM95.5217 25H97.9217V18.84C97.9217 17.34 99.0217 16.54 100.102 16.54C101.422 16.54 101.942 17.48 101.942 18.78V25H104.342V18.08C104.342 15.82 103.022 14.3 100.822 14.3C99.4617 14.3 98.5217 14.92 97.9217 15.62V10.64H95.5217V25ZM107.011 22.36C107.011 24.5 108.091 25.12 110.091 25.12C110.711 25.12 111.311 25.06 111.751 24.98V22.96C111.391 23 111.171 23.02 110.771 23.02C109.911 23.02 109.371 22.92 109.371 21.98V16.54H111.571V14.5H109.371V11.42H107.011V14.5H105.551V16.54H107.011V22.36ZM116.329 25.18C117.689 25.18 118.789 24.74 119.449 24C119.809 24.86 120.729 25.2 122.469 25V23.14C121.809 23.22 121.549 23.04 121.549 22.44V17.92C121.549 15.5 120.029 14.3 117.509 14.3C115.189 14.3 113.649 15.66 113.129 17.4L115.389 17.92C115.669 16.9 116.269 16.38 117.409 16.38C118.689 16.38 119.209 17 119.209 18V18.18L116.309 18.78C114.289 19.2 112.789 20.08 112.789 22.08C112.789 23.96 114.329 25.18 116.329 25.18ZM119.209 21.3C119.209 22.58 117.969 23.26 116.689 23.26C115.769 23.26 115.169 22.8 115.169 21.98C115.169 21.04 115.929 20.72 116.949 20.5L119.209 20.02V21.3ZM126.574 10.64H124.174V25H126.574V21.66L127.954 20.26L131.094 25H133.874L129.594 18.58L133.554 14.5H130.614L126.574 18.92V10.64ZM139.024 25.22C141.124 25.22 142.784 24.12 143.524 22.28L141.464 21.5C141.144 22.58 140.204 23.18 139.024 23.18C137.484 23.18 136.404 22.08 136.224 20.28H143.584V19.48C143.584 16.6 141.964 14.3 138.924 14.3C136.004 14.3 133.924 16.68 133.924 19.76C133.924 23 136.024 25.22 139.024 25.22ZM138.904 16.32C140.424 16.32 141.144 17.32 141.164 18.48H136.344C136.704 17.06 137.664 16.32 138.904 16.32Z" fill="black"/>
</g>
<defs>
<clipPath id="clip0_2099_85405">
<rect width="145" height="36" fill="white"/>
</clipPath>
</defs>
</svg>
