<svg width="145" height="36" viewBox="0 0 145 36" fill="none" xmlns="http://www.w3.org/2000/svg">
<rect width="32" height="32" transform="translate(0 2)" fill="white"/>
<path d="M21.7645 2.44434H16.4824V17.969V33.4937H24.2569C28.5506 33.4937 32.0314 30.013 32.0314 25.7192C32.0314 21.4255 28.5506 17.9447 24.2569 17.9447H22.6127C26.3809 17.5105 29.3103 14.2171 29.3103 10.2188C29.3103 5.92509 25.9319 2.44434 21.7645 2.44434Z" fill="#191B1F"/>
<path fill-rule="evenodd" clip-rule="evenodd" d="M6.35571 10.1702C6.35571 13.4551 4.62193 16.335 2.01956 17.9447C4.62193 19.5545 6.35571 22.4344 6.35571 25.7192C6.35571 29.004 4.62192 31.884 2.01953 33.4937H14.7619V2.44434H2.09726C4.65638 4.06304 6.35571 6.91818 6.35571 10.1702Z" fill="#191B1F"/>
<path d="M43.36 25H49.42C52.38 25 54.24 23.52 54.24 21C54.24 19.24 53.24 18 51.74 17.52C52.74 17.12 53.78 16.2 53.78 14.42C53.78 11.98 52.14 10.64 49.06 10.64H43.36V25ZM45.82 16.58V12.8H48.82C50.46 12.8 51.36 13.42 51.36 14.68C51.36 15.94 50.46 16.58 48.82 16.58H45.82ZM45.82 18.74H49.28C50.9 18.74 51.78 19.58 51.78 20.78C51.78 22 50.9 22.84 49.28 22.84H45.82V18.74ZM61.9934 14.48C61.8134 14.46 61.5934 14.44 61.3134 14.44C59.9734 14.44 58.8934 15.08 58.4334 16.06V14.5H56.0334V25H58.4334V19.48C58.4334 17.8 59.5934 16.82 61.1134 16.82C61.4534 16.82 61.6934 16.84 61.9934 16.88V14.48ZM67.5828 25.22C69.6828 25.22 71.3428 24.12 72.0828 22.28L70.0228 21.5C69.7028 22.58 68.7628 23.18 67.5828 23.18C66.0428 23.18 64.9628 22.08 64.7828 20.28H72.1428V19.48C72.1428 16.6 70.5228 14.3 67.4828 14.3C64.5628 14.3 62.4828 16.68 62.4828 19.76C62.4828 23 64.5828 25.22 67.5828 25.22ZM67.4628 16.32C68.9828 16.32 69.7028 17.32 69.7228 18.48H64.9028C65.2628 17.06 66.2228 16.32 67.4628 16.32ZM76.9189 25.18C78.2789 25.18 79.3789 24.74 80.0389 24C80.3989 24.86 81.3189 25.2 83.0589 25V23.14C82.3989 23.22 82.1389 23.04 82.1389 22.44V17.92C82.1389 15.5 80.6189 14.3 78.0989 14.3C75.7789 14.3 74.2389 15.66 73.7189 17.4L75.9789 17.92C76.2589 16.9 76.8589 16.38 77.9989 16.38C79.2789 16.38 79.7989 17 79.7989 18V18.18L76.8989 18.78C74.8789 19.2 73.3789 20.08 73.3789 22.08C73.3789 23.96 74.9189 25.18 76.9189 25.18ZM79.7989 21.3C79.7989 22.58 78.5589 23.26 77.2789 23.26C76.3589 23.26 75.7589 22.8 75.7589 21.98C75.7589 21.04 76.5189 20.72 77.5389 20.5L79.7989 20.02V21.3ZM84.9839 22.36C84.9839 24.5 86.0639 25.12 88.0639 25.12C88.6839 25.12 89.2839 25.06 89.7239 24.98V22.96C89.3639 23 89.1439 23.02 88.7439 23.02C87.8839 23.02 87.3439 22.92 87.3439 21.98V16.54H89.5439V14.5H87.3439V11.42H84.9839V14.5H83.5239V16.54H84.9839V22.36ZM91.5217 25H93.9217V18.84C93.9217 17.34 95.0217 16.54 96.1017 16.54C97.4217 16.54 97.9417 17.48 97.9417 18.78V25H100.342V18.08C100.342 15.82 99.0217 14.3 96.8217 14.3C95.4617 14.3 94.5217 14.92 93.9217 15.62V10.64H91.5217V25ZM103.011 22.36C103.011 24.5 104.091 25.12 106.091 25.12C106.711 25.12 107.311 25.06 107.751 24.98V22.96C107.391 23 107.171 23.02 106.771 23.02C105.911 23.02 105.371 22.92 105.371 21.98V16.54H107.571V14.5H105.371V11.42H103.011V14.5H101.551V16.54H103.011V22.36ZM112.329 25.18C113.689 25.18 114.789 24.74 115.449 24C115.809 24.86 116.729 25.2 118.469 25V23.14C117.809 23.22 117.549 23.04 117.549 22.44V17.92C117.549 15.5 116.029 14.3 113.509 14.3C111.189 14.3 109.649 15.66 109.129 17.4L111.389 17.92C111.669 16.9 112.269 16.38 113.409 16.38C114.689 16.38 115.209 17 115.209 18V18.18L112.309 18.78C110.289 19.2 108.789 20.08 108.789 22.08C108.789 23.96 110.329 25.18 112.329 25.18ZM115.209 21.3C115.209 22.58 113.969 23.26 112.689 23.26C111.769 23.26 111.169 22.8 111.169 21.98C111.169 21.04 111.929 20.72 112.949 20.5L115.209 20.02V21.3ZM122.574 10.64H120.174V25H122.574V21.66L123.954 20.26L127.094 25H129.874L125.594 18.58L129.554 14.5H126.614L122.574 18.92V10.64ZM135.024 25.22C137.124 25.22 138.784 24.12 139.524 22.28L137.464 21.5C137.144 22.58 136.204 23.18 135.024 23.18C133.484 23.18 132.404 22.08 132.224 20.28H139.584V19.48C139.584 16.6 137.964 14.3 134.924 14.3C132.004 14.3 129.924 16.68 129.924 19.76C129.924 23 132.024 25.22 135.024 25.22ZM134.904 16.32C136.424 16.32 137.144 17.32 137.164 18.48H132.344C132.704 17.06 133.664 16.32 134.904 16.32Z" fill="black"/>
</svg>
