<svg width="145" height="36" viewBox="0 0 145 36" fill="none" xmlns="http://www.w3.org/2000/svg">
<path d="M39.36 25H45.42C48.38 25 50.24 23.52 50.24 21C50.24 19.24 49.24 18 47.74 17.52C48.74 17.12 49.78 16.2 49.78 14.42C49.78 11.98 48.14 10.64 45.06 10.64H39.36V25ZM41.82 16.58V12.8H44.82C46.46 12.8 47.36 13.42 47.36 14.68C47.36 15.94 46.46 16.58 44.82 16.58H41.82ZM41.82 18.74H45.28C46.9 18.74 47.78 19.58 47.78 20.78C47.78 22 46.9 22.84 45.28 22.84H41.82V18.74ZM57.9934 14.48C57.8134 14.46 57.5934 14.44 57.3134 14.44C55.9734 14.44 54.8934 15.08 54.4334 16.06V14.5H52.0334V25H54.4334V19.48C54.4334 17.8 55.5934 16.82 57.1134 16.82C57.4534 16.82 57.6934 16.84 57.9934 16.88V14.48ZM63.5828 25.22C65.6828 25.22 67.3428 24.12 68.0828 22.28L66.0228 21.5C65.7028 22.58 64.7628 23.18 63.5828 23.18C62.0428 23.18 60.9628 22.08 60.7828 20.28H68.1428V19.48C68.1428 16.6 66.5228 14.3 63.4828 14.3C60.5628 14.3 58.4828 16.68 58.4828 19.76C58.4828 23 60.5828 25.22 63.5828 25.22ZM63.4628 16.32C64.9828 16.32 65.7028 17.32 65.7228 18.48H60.9028C61.2628 17.06 62.2228 16.32 63.4628 16.32ZM72.9189 25.18C74.2789 25.18 75.3789 24.74 76.0389 24C76.3989 24.86 77.3189 25.2 79.0589 25V23.14C78.3989 23.22 78.1389 23.04 78.1389 22.44V17.92C78.1389 15.5 76.6189 14.3 74.0989 14.3C71.7789 14.3 70.2389 15.66 69.7189 17.4L71.9789 17.92C72.2589 16.9 72.8589 16.38 73.9989 16.38C75.2789 16.38 75.7989 17 75.7989 18V18.18L72.8989 18.78C70.8789 19.2 69.3789 20.08 69.3789 22.08C69.3789 23.96 70.9189 25.18 72.9189 25.18ZM75.7989 21.3C75.7989 22.58 74.5589 23.26 73.2789 23.26C72.3589 23.26 71.7589 22.8 71.7589 21.98C71.7589 21.04 72.5189 20.72 73.5389 20.5L75.7989 20.02V21.3ZM80.9839 22.36C80.9839 24.5 82.0639 25.12 84.0639 25.12C84.6839 25.12 85.2839 25.06 85.7239 24.98V22.96C85.3639 23 85.1439 23.02 84.7439 23.02C83.8839 23.02 83.3439 22.92 83.3439 21.98V16.54H85.5439V14.5H83.3439V11.42H80.9839V14.5H79.5239V16.54H80.9839V22.36ZM87.5217 25H89.9217V18.84C89.9217 17.34 91.0217 16.54 92.1017 16.54C93.4217 16.54 93.9417 17.48 93.9417 18.78V25H96.3417V18.08C96.3417 15.82 95.0217 14.3 92.8217 14.3C91.4617 14.3 90.5217 14.92 89.9217 15.62V10.64H87.5217V25ZM99.0113 22.36C99.0113 24.5 100.091 25.12 102.091 25.12C102.711 25.12 103.311 25.06 103.751 24.98V22.96C103.391 23 103.171 23.02 102.771 23.02C101.911 23.02 101.371 22.92 101.371 21.98V16.54H103.571V14.5H101.371V11.42H99.0113V14.5H97.5513V16.54H99.0113V22.36ZM108.329 25.18C109.689 25.18 110.789 24.74 111.449 24C111.809 24.86 112.729 25.2 114.469 25V23.14C113.809 23.22 113.549 23.04 113.549 22.44V17.92C113.549 15.5 112.029 14.3 109.509 14.3C107.189 14.3 105.649 15.66 105.129 17.4L107.389 17.92C107.669 16.9 108.269 16.38 109.409 16.38C110.689 16.38 111.209 17 111.209 18V18.18L108.309 18.78C106.289 19.2 104.789 20.08 104.789 22.08C104.789 23.96 106.329 25.18 108.329 25.18ZM111.209 21.3C111.209 22.58 109.969 23.26 108.689 23.26C107.769 23.26 107.169 22.8 107.169 21.98C107.169 21.04 107.929 20.72 108.949 20.5L111.209 20.02V21.3ZM118.574 10.64H116.174V25H118.574V21.66L119.954 20.26L123.094 25H125.874L121.594 18.58L125.554 14.5H122.614L118.574 18.92V10.64ZM131.024 25.22C133.124 25.22 134.784 24.12 135.524 22.28L133.464 21.5C133.144 22.58 132.204 23.18 131.024 23.18C129.484 23.18 128.404 22.08 128.224 20.28H135.584V19.48C135.584 16.6 133.964 14.3 130.924 14.3C128.004 14.3 125.924 16.68 125.924 19.76C125.924 23 128.024 25.22 131.024 25.22ZM130.904 16.32C132.424 16.32 133.144 17.32 133.164 18.48H128.344C128.704 17.06 129.664 16.32 130.904 16.32Z" fill="black"/>
<rect y="2" width="32" height="32" rx="4.92308" fill="#191B1F"/>
<path d="M19.226 9.09131H16.2002V17.9846V26.878H20.6538C23.1135 26.878 25.1074 24.884 25.1074 22.4243C25.1074 19.9647 23.1135 17.9707 20.6538 17.9707H19.7119C21.8705 17.7219 23.5487 15.8354 23.5487 13.5449C23.5487 11.0853 21.6134 9.09131 19.226 9.09131Z" fill="white"/>
<path fill-rule="evenodd" clip-rule="evenodd" d="M10.399 13.5171C10.399 15.3988 9.40582 17.0486 7.91505 17.9707C9.40582 18.8929 10.399 20.5426 10.399 22.4243C10.399 24.3061 9.40581 25.9558 7.91504 26.878H15.2144V9.09131H7.95956C9.42555 10.0186 10.399 11.6542 10.399 13.5171Z" fill="white"/>
</svg>
