<svg width="120" height="20" viewBox="0 0 120 20" fill="none" xmlns="http://www.w3.org/2000/svg">
<path d="M0 18.1364H7.43182C10.9318 18.1364 12.9773 16.4318 12.9773 13.5455C12.9773 11.5909 11.8409 10.2273 10.2955 9.65909C11.3636 9.20454 12.5 8.0909 12.5 6.20454C12.5 3.36363 10.5909 1.81818 7.02273 1.81818H0V18.1364ZM3.63636 8.36363V4.93181H6.63636C8.11364 4.93181 8.93182 5.49999 8.93182 6.63636C8.93182 7.77272 8.11364 8.36363 6.63636 8.36363H3.63636ZM3.63636 11.3182H7.09091C8.54545 11.3182 9.34091 12.0682 9.34091 13.1591C9.34091 14.25 8.54545 15 7.09091 15H3.63636V11.3182Z" fill="#191B1F"/>
<path d="M21.714 6.13636C21.4867 6.11363 21.2594 6.0909 20.9185 6.0909C19.5321 6.0909 18.373 6.77272 17.8276 7.72727V6.15909H14.1912V18.1364H17.8276V12.25C17.8276 10.5227 19.0776 9.54545 20.6458 9.54545C21.0549 9.54545 21.3276 9.56818 21.714 9.63636V6.13636Z" fill="#191B1F"/>
<path d="M28.2678 18.3864C30.6541 18.3864 32.8359 17.1818 33.7223 14.8864L30.6768 13.9091C30.3359 14.9545 29.4496 15.5 28.3132 15.5C26.9268 15.5 25.9496 14.5682 25.6996 12.9318H33.8132V11.9773C33.8132 8.59091 31.8359 5.90909 28.1996 5.90909C24.745 5.90909 22.1996 8.5909 22.1996 12.1364C22.1996 15.8636 24.6541 18.3864 28.2678 18.3864ZM28.1541 8.72727C29.495 8.72727 30.1996 9.63636 30.2223 10.7045H25.8132C26.1768 9.38636 27.0405 8.72727 28.1541 8.72727Z" fill="#191B1F"/>
<path d="M38.9847 18.3636C40.5529 18.3636 41.7347 17.8864 42.5302 17.0682C43.1438 18.0909 44.5529 18.4773 46.6438 18.1364V15.4545C45.9393 15.5455 45.712 15.3636 45.712 14.75V10.1364C45.712 7.3409 43.7802 5.90909 40.6438 5.90909C37.5984 5.90909 35.712 7.63636 35.1893 9.75L38.6665 10.2727C38.8938 9.29545 39.4393 8.8409 40.4847 8.8409C41.6665 8.8409 42.1438 9.40909 42.1438 10.2954V10.5L39.462 10.9545C36.9393 11.3182 34.8484 12.3182 34.8484 14.7955C34.8484 16.9091 36.5756 18.3636 38.9847 18.3636ZM42.1438 13.8409C42.1438 15.0682 41.0302 15.7045 39.8256 15.7045C38.962 15.7045 38.3938 15.2955 38.3938 14.5455C38.3938 13.7045 39.0984 13.3864 40.0529 13.2273L42.1438 12.8409V13.8409Z" fill="#191B1F"/>
<path d="M48.5696 14.9318C48.5696 17.3864 49.8651 18.25 52.456 18.25C53.3196 18.25 54.0014 18.1818 54.6378 18.0909V15.1136C54.2287 15.1591 54.0241 15.1818 53.5923 15.1818C52.6832 15.1818 52.1605 15 52.1605 14V9.15909H54.5014V6.15909H52.1605V2.8409H48.5696V6.15909H47.0469V9.15909H48.5696V14.9318Z" fill="#191B1F"/>
<path d="M56.3725 18.1364H60.0089V11.2954C60.0089 9.88636 60.9861 9.18181 61.9861 9.18181C63.168 9.18181 63.668 10.0682 63.668 11.2727V18.1364H67.3043V10.2273C67.3043 7.61363 65.7589 5.90909 63.3043 5.90909C61.7816 5.90909 60.668 6.5909 60.0089 7.36363V1.81818H56.3725V18.1364Z" fill="#191B1F"/>
<path d="M69.8045 14.9318C69.8045 17.3864 71.1 18.25 73.6909 18.25C74.5545 18.25 75.2363 18.1818 75.8727 18.0909V15.1136C75.4636 15.1591 75.259 15.1818 74.8272 15.1818C73.9181 15.1818 73.3954 15 73.3954 14V9.15909H75.7363V6.15909H73.3954V2.8409H69.8045V6.15909H68.2818V9.15909H69.8045V14.9318Z" fill="#191B1F"/>
<path d="M80.9938 18.3636C82.562 18.3636 83.7438 17.8864 84.5392 17.0682C85.1529 18.0909 86.562 18.4773 88.6529 18.1364V15.4545C87.9483 15.5455 87.721 15.3636 87.721 14.75V10.1364C87.721 7.3409 85.7892 5.90909 82.6529 5.90909C79.6074 5.90909 77.7211 7.63636 77.1983 9.75L80.6756 10.2727C80.9029 9.29545 81.4483 8.8409 82.4938 8.8409C83.6756 8.8409 84.1529 9.40909 84.1529 10.2954V10.5L81.471 10.9545C78.9483 11.3182 76.8574 12.3182 76.8574 14.7955C76.8574 16.9091 78.5847 18.3636 80.9938 18.3636ZM84.1529 13.8409C84.1529 15.0682 83.0392 15.7045 81.8347 15.7045C80.9711 15.7045 80.4029 15.2955 80.4029 14.5455C80.4029 13.7045 81.1074 13.3864 82.062 13.2273L84.1529 12.8409V13.8409Z" fill="#191B1F"/>
<path d="M93.8947 1.81818H90.2583V18.1364H93.8947V14.6591L95.1674 13.3182L98.1674 18.1364H102.327L97.6902 10.6591L101.986 6.15909H97.7129L93.8947 10.4545V1.81818Z" fill="#191B1F"/>
<path d="M107.875 18.3864C110.262 18.3864 112.444 17.1818 113.33 14.8864L110.284 13.9091C109.944 14.9545 109.057 15.5 107.921 15.5C106.534 15.5 105.557 14.5682 105.307 12.9318H113.421V11.9773C113.421 8.59091 111.444 5.90909 107.807 5.90909C104.353 5.90909 101.807 8.5909 101.807 12.1364C101.807 15.8636 104.262 18.3864 107.875 18.3864ZM107.762 8.72727C109.103 8.72727 109.807 9.63636 109.83 10.7045H105.421C105.784 9.38636 106.648 8.72727 107.762 8.72727Z" fill="#191B1F"/>
<path d="M114.686 18.1365H118.868V14.0683H114.686V18.1365Z" fill="black"/>
</svg>
