<svg width="40" height="40" viewBox="0 0 40 40" fill="none" xmlns="http://www.w3.org/2000/svg">
<path fill-rule="evenodd" clip-rule="evenodd" d="M20 5C20.5523 5 21 5.44772 21 6V34C21 34.5523 20.5523 35 20 35C19.4477 35 19 34.5523 19 34V6C19 5.44772 19.4477 5 20 5ZM8.70711 15.2929C9.09763 15.6834 9.09763 16.3166 8.70711 16.7071L6.41421 19H16C16.5523 19 17 19.4477 17 20C17 20.5523 16.5523 21 16 21H6.41421L8.70711 23.2929C9.09763 23.6834 9.09763 24.3166 8.70711 24.7071C8.31658 25.0976 7.68342 25.0976 7.29289 24.7071L3.29289 20.7071C2.90237 20.3166 2.90237 19.6834 3.29289 19.2929L7.29289 15.2929C7.68342 14.9024 8.31658 14.9024 8.70711 15.2929ZM31.2929 16.7071C30.9024 16.3166 30.9024 15.6834 31.2929 15.2929C31.6834 14.9024 32.3166 14.9024 32.7071 15.2929L36.7071 19.2929C37.0976 19.6834 37.0976 20.3166 36.7071 20.7071L32.7071 24.7071C32.3166 25.0976 31.6834 25.0976 31.2929 24.7071C30.9024 24.3166 30.9024 23.6834 31.2929 23.2929L33.5858 21H24C23.4477 21 23 20.5523 23 20C23 19.4477 23.4477 19 24 19H33.5858L31.2929 16.7071Z" fill="black"/>
</svg>
